<svg xmlns="http://www.w3.org/2000/svg" viewBox="0 0 1200 900" role="img" aria-labelledby="title desc">
	<title id="title">Registration access pass thumbnail</title>
	<desc id="desc">Editorial ticket-style artwork for the Humans of Phnom Penh registration fee product.</desc>
	<defs>
		<linearGradient id="paper" x1="0" y1="0" x2="1" y2="1">
			<stop offset="0" stop-color="#fcfbf9"/>
			<stop offset="1" stop-color="#f0e7da"/>
		</linearGradient>
		<linearGradient id="rust" x1="0" y1="0" x2="1" y2="1">
			<stop offset="0" stop-color="#c47254"/>
			<stop offset="1" stop-color="#8e4c32"/>
		</linearGradient>
		<pattern id="dots" width="34" height="34" patternUnits="userSpaceOnUse">
			<circle cx="4" cy="4" r="3" fill="#9c8469" opacity="0.22"/>
		</pattern>
	</defs>
	<rect width="1200" height="900" fill="#33231a"/>
	<path d="M0 650 C190 570 285 705 475 622 C665 540 758 420 960 498 C1085 546 1145 530 1200 498 L1200 900 L0 900 Z" fill="#c47254" opacity="0.78"/>
	<path d="M0 0 H1200 V900 H0 Z" fill="url(#dots)"/>
	<g transform="translate(160 156)">
		<path d="M96 0 H784 C812 0 836 23 836 52 V536 C836 565 812 588 784 588 H96 C68 588 44 565 44 536 C44 502 16 474 -18 474 V114 C16 114 44 86 44 52 C44 23 68 0 96 0 Z" fill="url(#paper)"/>
		<path d="M96 0 H784 C812 0 836 23 836 52 V536 C836 565 812 588 784 588 H96 C68 588 44 565 44 536 C44 502 16 474 -18 474 V114 C16 114 44 86 44 52 C44 23 68 0 96 0 Z" fill="none" stroke="#9c8469" stroke-width="6"/>
		<path d="M628 2 V586" stroke="#9c8469" stroke-width="4" stroke-dasharray="16 18" opacity="0.75"/>
		<circle cx="628" cy="105" r="30" fill="#33231a"/>
		<circle cx="628" cy="483" r="30" fill="#33231a"/>
		<text x="100" y="150" fill="#8e4c32" font-family="Georgia, serif" font-size="52" letter-spacing="6">HOPP</text>
		<text x="100" y="230" fill="#33231a" font-family="Montserrat, Arial, sans-serif" font-size="82" font-weight="700" letter-spacing="8">ACCESS</text>
		<text x="100" y="306" fill="#33231a" font-family="Montserrat, Arial, sans-serif" font-size="82" font-weight="700" letter-spacing="8">PASS</text>
		<rect x="100" y="365" width="392" height="10" rx="5" fill="url(#rust)"/>
		<text x="100" y="440" fill="#6b7280" font-family="Montserrat, Arial, sans-serif" font-size="30" letter-spacing="5">REGISTRATION FEE</text>
		<text x="692" y="154" fill="#33231a" font-family="Georgia, serif" font-size="36" transform="rotate(90 692 154)">PHNOM PENH</text>
		<g transform="translate(688 365)">
			<rect width="88" height="88" rx="16" fill="#33231a"/>
			<path d="M24 48 L40 64 L67 28" fill="none" stroke="#fcfbf9" stroke-width="8" stroke-linecap="round" stroke-linejoin="round"/>
		</g>
	</g>
</svg>
